<mxfile host="app.diagrams.net" modified="2022-05-22T09:20:44.700Z" agent="5.0 (Windows NT 10.0; Win64; x64) AppleWebKit/537.36 (KHTML, like Gecko) Chrome/101.0.0.0 Safari/537.36" etag="e_IhvG5w-Ztie2XBpDr2" version="18.1.1" type="github">
  <diagram id="osUuf4wcnW5tIUX_Owoj" name="Page-1">
    <mxGraphModel dx="1038" dy="571" grid="1" gridSize="10" guides="1" tooltips="1" connect="1" arrows="1" fold="1" page="1" pageScale="1" pageWidth="850" pageHeight="1100" math="0" shadow="0">
      <root>
        <mxCell id="0" />
        <mxCell id="1" parent="0" />
        <mxCell id="dGb1o_t6DyV3_U_9dmby-3" style="edgeStyle=orthogonalEdgeStyle;rounded=0;orthogonalLoop=1;jettySize=auto;html=1;" edge="1" parent="1" source="dGb1o_t6DyV3_U_9dmby-1" target="dGb1o_t6DyV3_U_9dmby-2">
          <mxGeometry relative="1" as="geometry" />
        </mxCell>
        <mxCell id="dGb1o_t6DyV3_U_9dmby-1" value="" style="rounded=0;whiteSpace=wrap;html=1;" vertex="1" parent="1">
          <mxGeometry x="270" y="100" width="120" height="60" as="geometry" />
        </mxCell>
        <mxCell id="dGb1o_t6DyV3_U_9dmby-2" value="" style="rounded=1;whiteSpace=wrap;html=1;" vertex="1" parent="1">
          <mxGeometry x="270" y="280" width="120" height="60" as="geometry" />
        </mxCell>
      </root>
    </mxGraphModel>
  </diagram>
</mxfile>
